<svg width="32" height="32" viewBox="0 0 32 32" fill="none" xmlns="http://www.w3.org/2000/svg">
  <rect width="32" height="32" rx="8" fill="#0fa47f"/>
  <path d="M8 17.3333C8 14.7559 8 13.4672 8.58579 12.5621C8.98086 11.9657 9.5657 11.4896 10.2553 11.2183C11.2962 10.8333 12.6481 10.8333 15.3518 10.8333H16.6482C19.3518 10.8333 20.7038 10.8333 21.7447 11.2183C22.4343 11.4896 23.0191 11.9657 23.4142 12.5621C24 13.4672 24 14.7559 24 17.3333C24 19.9108 24 21.1995 23.4142 22.1045C23.0191 22.701 22.4343 23.1771 21.7447 23.4483C20.7038 23.8333 19.3518 23.8333 16.6482 23.8333H15.3518C12.6482 23.8333 11.2962 23.8333 10.2553 23.4483C9.5657 23.1771 8.98086 22.701 8.58579 22.1045C8 21.1995 8 19.9108 8 17.3333Z" stroke="white" stroke-width="1.5" stroke-linecap="round" stroke-linejoin="round"/>
  <path d="M13.3335 15.3333L10.6669 8.00001M18.6669 15.3333L21.3335 8.00001M14.6669 18.6667H17.3335M14.6669 22H17.3335" stroke="white" stroke-width="1.5" stroke-linecap="round" stroke-linejoin="round"/>
</svg>